{"title":"Game.of.Thrones.S02E07.HDTV.XviD-Atilla82","uid":7271978,"size":368763148,"categoryP":"video","categoryS":"tv_shows","magnet":"?xt=urn:btih:4770ed0736e2953fac81a897b229a22b0242c723&amp;dn=Game.of.Thrones.S02E07.HDTV.XviD-Atilla82&amp;tr=udp%3A%2F%2Ftracker.openbittorrent.com%3A80&amp;tr=udp%3A%2F%2Fopen.demonii.com%3A1337&amp;tr=udp%3A%2F%2Ftracker.coppersurfer.tk%3A6969&amp;tr=udp%3A%2F%2Fexodus.desync.com%3A6969","seeders":16,"leechers":1,"uploader":"Atilla82","files":3,"time":1337078128,"description":"Game.of.Thrones.S02E07.HDTV.XviD-Atilla82\n\n\nscreenshots included in torrent\n\n\n\nGame of Thrones (2012)\n\n//www.imdb.com/title/tt0944947/\n\nSeven noble families fight for control of the mythical land of Westeros.\n\n\n\nlanguage: English\n\n\nGeneral\nComplete name : Game.of.Thrones.S02E07.HDTV.XviD-Atilla82.avi\nFormat : AVI\nFormat/Info : Audio Video Interleave\nFile size : 352 MiB\nDuration : 56mn 44s\nOverall bit rate : 866 Kbps\nWriting application : Lavf52.61.0\n\nVideo\nID : 0\nFormat : MPEG-4 Visual\nFormat profile : Advanced Simple@L5\nFormat settings, BVOP : No\nFormat settings, QPel : Yes\nFormat settings, GMC : No warppoints\nFormat settings, Matrix : Default (H.263)\nCodec ID : XVID\nCodec ID/Hint : XviD\nDuration : 56mn 44s\nBit rate : 726 Kbps\nWidth : 680 pixels\nHeight : 380 pixels\nDisplay aspect ratio : 16:9\nFrame rate : 23.976 fps\nColor space : YUV\nChroma subsampling : 4:2:0\nBit depth : 8 bits\nScan type : Progressive\nCompression mode : Lossy\nBits/(Pixel*Frame) : 0.117\nStream size : 294 MiB (84%)\nWriting library : XviD 64\n\nAudio\nID : 1\nFormat : MPEG Audio\nFormat version : Version 1\nFormat profile : Layer 3\nCodec ID : 55\nCodec ID/Hint : MP3\nDuration : 56mn 44s\nBit rate mode : Constant\nBit rate : 128 Kbps\nChannel(s) : 2 channels\nSampling rate : 48.0 KHz\nCompression mode : Lossy\nStream size : 51.9 MiB (15%)\nAlignment : Aligned on interleaves\nInterleave, duration : 24 ms (0.58 video frame)\n\n\n\n\nSCREENSHOTS &lt;a href=&quot;\nhttp://www.pohrani.com/f/2/aE/4keuhSU1/gameofthroness02e07scree.jpg&quot; rel=&quot;nofollow&quot; target=&quot;_NEW&quot;&gt;\nhttp://www.pohrani.com/f/2/aE/4keuhSU1/gameofthroness02e07scree.jpg&lt;/a&gt;\n\n","torrent":{"xt":"urn:btih:4770ed0736e2953fac81a897b229a22b0242c723","amp;dn":"Game.of.Thrones.S02E07.HDTV.XviD-Atilla82","amp;tr":["udp%3A%2F%2Ftracker.openbittorrent.com%3A80","udp%3A%2F%2Fopen.demonii.com%3A1337","udp%3A%2F%2Ftracker.coppersurfer.tk%3A6969","udp%3A%2F%2Fexodus.desync.com%3A6969"],"infoHash":"4770ed0736e2953fac81a897b229a22b0242c723","infoHashBuffer":{"type":"Buffer","data":[71,112,237,7,54,226,149,63,172,129,168,151,178,41,162,43,2,66,199,35]},"announce":[],"urlList":[]}}